<svg xmlns="http://www.w3.org/2000/svg" viewBox="0 0 64 64" fill="none">
  <rect x="2" y="2" width="60" height="60" rx="18" fill="#030303" />
  <path d="M32 18V38" stroke="#7EC8E3" stroke-width="6" stroke-linecap="round" />
  <path d="M22 28H42" stroke="#7EC8E3" stroke-width="6" stroke-linecap="round" />
  <g transform="translate(37 37) scale(0.28)">
    <g transform="rotate(-20 16 48)">
      <rect x="8" y="16" width="12" height="40" rx="6" fill="#A8D5A2" />
      <ellipse cx="14" cy="16" rx="6" ry="3.5" fill="#8BC585" />
    </g>
    <g transform="rotate(-5 24 44)">
      <rect x="18" y="12" width="12" height="44" rx="6" fill="#F5D76E" />
      <ellipse cx="24" cy="12" rx="6" ry="3.5" fill="#E8C85A" />
    </g>
    <g transform="rotate(25 44 20)">
      <rect x="28" y="4" width="12" height="42" rx="6" fill="#7EC8E3" />
      <ellipse cx="34" cy="4" rx="6" ry="3.5" fill="#5FB8D9" />
    </g>
    <g transform="rotate(10 44 40)">
      <rect x="38" y="18" width="12" height="38" rx="6" fill="#F0A0A0" />
      <ellipse cx="44" cy="56" rx="6" ry="3.5" fill="#E88888" />
    </g>
  </g>
</svg>
