<svg xmlns="http://www.w3.org/2000/svg" viewBox="0 0 64 64" fill="none">
  <rect x="2" y="2" width="60" height="60" rx="18" fill="#030303" />
  <path d="M32 18V38" stroke="#7EC8E3" stroke-width="6" stroke-linecap="round" />
  <path d="M22 28H42" stroke="#7EC8E3" stroke-width="6" stroke-linecap="round" />
  <defs>
    <linearGradient id="grn" x1="0%" y1="0%" x2="100%" y2="0%">
      <stop offset="0%" stop-color="#C5E5C0"/><stop offset="100%" stop-color="#80B879"/>
    </linearGradient>
    <linearGradient id="yel" x1="0%" y1="0%" x2="100%" y2="0%">
      <stop offset="0%" stop-color="#FCEAB3"/><stop offset="100%" stop-color="#D9B641"/>
    </linearGradient>
    <linearGradient id="blu" x1="0%" y1="0%" x2="100%" y2="0%">
      <stop offset="0%" stop-color="#B2E0F0"/><stop offset="100%" stop-color="#55AAC9"/>
    </linearGradient>
    <linearGradient id="pnk" x1="0%" y1="0%" x2="100%" y2="0%">
      <stop offset="0%" stop-color="#F8CACA"/><stop offset="100%" stop-color="#D67B7B"/>
    </linearGradient>
  </defs>
  <g transform="translate(35 35) scale(0.35) translate(5 5) scale(0.85)">
    <g transform="rotate(-20 16 48)">
      <path d="M9,16 L19,16 L20,50 A6,6 0 0 1 8,50 Z" fill="url(#grn)"/>
      <ellipse cx="14" cy="16" rx="5" ry="2" fill="#D8ECD4"/>
    </g>
    <g transform="rotate(-5 24 44)">
      <path d="M19,12 L29,12 L30,50 A6,6 0 0 1 18,50 Z" fill="url(#yel)"/>
      <ellipse cx="24" cy="12" rx="5" ry="2" fill="#FEF3D1"/>
    </g>
    <g transform="rotate(25 44 20)">
      <path d="M29,4 L39,4 L40,40 A6,6 0 0 1 28,40 Z" fill="url(#blu)"/>
      <ellipse cx="34" cy="4" rx="5" ry="2" fill="#D0EDF8"/>
    </g>
    <g transform="rotate(10 44 40)">
      <path d="M39,56 L49,56 L50,24 A6,6 0 0 0 38,24 Z" fill="url(#pnk)"/>
      <ellipse cx="44" cy="56" rx="5" ry="2" fill="#FBE4E4"/>
    </g>
  </g>
</svg>
